<?xml version="1.0" standalone="no"?>
<svg xmlns:xlink="http://www.w3.org/1999/xlink" id="wave" style="transform:rotate(0deg); transition: 0.3s" viewBox="0 0 1440 490" version="1.1" xmlns="http://www.w3.org/2000/svg"><defs><linearGradient id="sw-gradient-0" x1="0" x2="0" y1="1" y2="0"><stop stop-color="rgba(7.894, 107.074, 132.374, 1)" offset="0%"/><stop stop-color="rgba(46.386, 80.842, 116.436, 1)" offset="100%"/></linearGradient></defs><path style="transform:translate(0, 0px); opacity:1" fill="url(#sw-gradient-0)" d="M0,245L60,228.7C120,212,240,180,360,212.3C480,245,600,343,720,334.8C840,327,960,212,1080,147C1200,82,1320,65,1440,98C1560,131,1680,212,1800,277.7C1920,343,2040,392,2160,367.5C2280,343,2400,245,2520,204.2C2640,163,2760,180,2880,204.2C3000,229,3120,261,3240,236.8C3360,212,3480,131,3600,130.7C3720,131,3840,212,3960,220.5C4080,229,4200,163,4320,163.3C4440,163,4560,229,4680,245C4800,261,4920,229,5040,204.2C5160,180,5280,163,5400,147C5520,131,5640,114,5760,130.7C5880,147,6000,196,6120,204.2C6240,212,6360,180,6480,187.8C6600,196,6720,245,6840,228.7C6960,212,7080,131,7200,130.7C7320,131,7440,212,7560,220.5C7680,229,7800,163,7920,147C8040,131,8160,163,8280,204.2C8400,245,8520,294,8580,318.5L8640,343L8640,490L8580,490C8520,490,8400,490,8280,490C8160,490,8040,490,7920,490C7800,490,7680,490,7560,490C7440,490,7320,490,7200,490C7080,490,6960,490,6840,490C6720,490,6600,490,6480,490C6360,490,6240,490,6120,490C6000,490,5880,490,5760,490C5640,490,5520,490,5400,490C5280,490,5160,490,5040,490C4920,490,4800,490,4680,490C4560,490,4440,490,4320,490C4200,490,4080,490,3960,490C3840,490,3720,490,3600,490C3480,490,3360,490,3240,490C3120,490,3000,490,2880,490C2760,490,2640,490,2520,490C2400,490,2280,490,2160,490C2040,490,1920,490,1800,490C1680,490,1560,490,1440,490C1320,490,1200,490,1080,490C960,490,840,490,720,490C600,490,480,490,360,490C240,490,120,490,60,490L0,490Z"/><defs><linearGradient id="sw-gradient-1" x1="0" x2="0" y1="1" y2="0"><stop stop-color="rgba(46.15, 108.314, 120.99, 1)" offset="0%"/><stop stop-color="rgba(20.655, 170.11, 187.017, 1)" offset="100%"/></linearGradient></defs><path style="transform:translate(0, 50px); opacity:0.9" fill="url(#sw-gradient-1)" d="M0,392L60,351.2C120,310,240,229,360,187.8C480,147,600,147,720,196C840,245,960,343,1080,318.5C1200,294,1320,147,1440,98C1560,49,1680,98,1800,163.3C1920,229,2040,310,2160,359.3C2280,408,2400,425,2520,416.5C2640,408,2760,376,2880,302.2C3000,229,3120,114,3240,73.5C3360,33,3480,65,3600,122.5C3720,180,3840,261,3960,294C4080,327,4200,310,4320,310.3C4440,310,4560,327,4680,294C4800,261,4920,180,5040,155.2C5160,131,5280,163,5400,179.7C5520,196,5640,196,5760,204.2C5880,212,6000,229,6120,236.8C6240,245,6360,245,6480,245C6600,245,6720,245,6840,220.5C6960,196,7080,147,7200,147C7320,147,7440,196,7560,179.7C7680,163,7800,82,7920,98C8040,114,8160,229,8280,261.3C8400,294,8520,245,8580,220.5L8640,196L8640,490L8580,490C8520,490,8400,490,8280,490C8160,490,8040,490,7920,490C7800,490,7680,490,7560,490C7440,490,7320,490,7200,490C7080,490,6960,490,6840,490C6720,490,6600,490,6480,490C6360,490,6240,490,6120,490C6000,490,5880,490,5760,490C5640,490,5520,490,5400,490C5280,490,5160,490,5040,490C4920,490,4800,490,4680,490C4560,490,4440,490,4320,490C4200,490,4080,490,3960,490C3840,490,3720,490,3600,490C3480,490,3360,490,3240,490C3120,490,3000,490,2880,490C2760,490,2640,490,2520,490C2400,490,2280,490,2160,490C2040,490,1920,490,1800,490C1680,490,1560,490,1440,490C1320,490,1200,490,1080,490C960,490,840,490,720,490C600,490,480,490,360,490C240,490,120,490,60,490L0,490Z"/><defs><linearGradient id="sw-gradient-2" x1="0" x2="0" y1="1" y2="0"><stop stop-color="rgba(44.489, 164.99, 209.784, 1)" offset="0%"/><stop stop-color="rgba(46.887, 140.395, 164.249, 1)" offset="100%"/></linearGradient></defs><path style="transform:translate(0, 100px); opacity:0.8" fill="url(#sw-gradient-2)" d="M0,245L60,269.5C120,294,240,343,360,326.7C480,310,600,229,720,163.3C840,98,960,49,1080,89.8C1200,131,1320,261,1440,310.3C1560,359,1680,327,1800,310.3C1920,294,2040,294,2160,302.2C2280,310,2400,327,2520,294C2640,261,2760,180,2880,163.3C3000,147,3120,196,3240,187.8C3360,180,3480,114,3600,130.7C3720,147,3840,245,3960,253.2C4080,261,4200,180,4320,130.7C4440,82,4560,65,4680,106.2C4800,147,4920,245,5040,245C5160,245,5280,147,5400,122.5C5520,98,5640,147,5760,187.8C5880,229,6000,261,6120,253.2C6240,245,6360,196,6480,220.5C6600,245,6720,343,6840,359.3C6960,376,7080,310,7200,277.7C7320,245,7440,245,7560,253.2C7680,261,7800,278,7920,261.3C8040,245,8160,196,8280,220.5C8400,245,8520,343,8580,392L8640,441L8640,490L8580,490C8520,490,8400,490,8280,490C8160,490,8040,490,7920,490C7800,490,7680,490,7560,490C7440,490,7320,490,7200,490C7080,490,6960,490,6840,490C6720,490,6600,490,6480,490C6360,490,6240,490,6120,490C6000,490,5880,490,5760,490C5640,490,5520,490,5400,490C5280,490,5160,490,5040,490C4920,490,4800,490,4680,490C4560,490,4440,490,4320,490C4200,490,4080,490,3960,490C3840,490,3720,490,3600,490C3480,490,3360,490,3240,490C3120,490,3000,490,2880,490C2760,490,2640,490,2520,490C2400,490,2280,490,2160,490C2040,490,1920,490,1800,490C1680,490,1560,490,1440,490C1320,490,1200,490,1080,490C960,490,840,490,720,490C600,490,480,490,360,490C240,490,120,490,60,490L0,490Z"/></svg>